<svg height="512" viewBox="0 0 512 512" width="512" xmlns="http://www.w3.org/2000/svg"><g id="Filled_outline" data-name="Filled outline"><ellipse cx="256" cy="408" fill="#ebebeb" rx="204.706" ry="80"/><path d="m24 200a252.053 252.053 0 0 0 46.135 145.357l49.865 70.643h272l49.865-70.643a252.053 252.053 0 0 0 46.135-145.357z" fill="#dedede"/><path d="m93.416 325.273h16v17.82h-16z" fill="#ebebeb" transform="matrix(.817 -.577 .577 .817 -174.152 119.647)"/><path d="m118.009 350.689h16v36.666h-16z" fill="#ebebeb" transform="matrix(.817 -.577 .577 .817 -189.744 140.209)"/><ellipse cx="256" cy="200" fill="#e05114" rx="232" ry="136"/><ellipse cx="256" cy="228" fill="#fcc50f" rx="227.08" ry="108"/><path d="m407.691 24a32.308 32.308 0 0 0 -26.883 14.388 427.251 427.251 0 0 1 -53.391 65.128l-21.779 21.784a50.223 50.223 0 0 1 -33.672 14.5c-18.426.719-38.4 9.431-54.433 25.469-22.218 22.218-30.38 51.983-22.7 74.733h109.793c12.275-14.757 18.951-31.943 19.576-47.966a50.223 50.223 0 0 1 14.5-33.672l21.779-21.779a427.253 427.253 0 0 1 65.119-53.385l.011-.007a32.309 32.309 0 0 0 14.389-26.884 32.309 32.309 0 0 0 -32.309-32.309z" fill="#dedede"/><rect fill="#f5a12c" height="32" rx="8" width="40" x="96" y="232"/><rect fill="#f5a12c" height="32" rx="8" transform="matrix(.707 .707 -.707 .707 265.005 -220.063)" width="40" x="378.142" y="193.858"/><circle cx="360" cy="264" fill="#fadd5c" r="16"/><circle cx="144" cy="184" fill="#fadd5c" r="16"/><path d="m236 272a28 28 0 0 1 28 28v4a0 0 0 0 1 0 0h-56a0 0 0 0 1 0 0v-4a28 28 0 0 1 28-28z" fill="#e05114"/><path d="m232 216h-16a60.987 60.987 0 0 1 8.09-28.031c7.443-12.759 23.184-27.969 55.91-27.969v16c-47.455 0-48 38.367-48 40z" fill="#ebebeb"/><path d="m439.515 362.559 8.886-12.588a258.719 258.719 0 0 0 47.599-149.971c0-39.849-26.907-77.407-74.3-104.438q4.114-2.888 8.291-5.678l.054-.036a40.309 40.309 0 1 0 -55.9-55.9q-11.477 17.219-24.659 33.292a382.669 382.669 0 0 0 -93.486-11.24c-69.8 0-135.927 18.012-181.436 49.416l9.088 13.168c42.901-29.605 105.72-46.584 172.348-46.584a370 370 0 0 1 81.772 8.89q-7.782 8.7-16.011 16.968l-17.09 17.091a401.1 401.1 0 0 0 -48.671-2.949c-54.768 0-108.275 11.245-150.664 31.663-32.891 15.842-58.13 36.7-73.226 60.123-.066-1.262-.11-2.524-.11-3.786 0-26.479 14.309-51.986 41.379-73.767l-10.03-12.466c-30.976 24.922-47.349 54.742-47.349 86.233a258.719 258.719 0 0 0 47.6 149.971l8.886 12.588c-19.135 13.435-29.196 29.027-29.196 45.441 0 24.891 23.1 47.626 65.045 64.019 39.571 15.464 92.013 23.981 147.665 23.981 58.877 0 115.438-9.867 155.178-27.071l-6.356-14.684c-37.808 16.368-92.051 25.755-148.822 25.755-53.708 0-104.081-8.127-141.84-22.884-34.871-13.628-54.87-31.53-54.87-49.116 0-13.287 11.1-24.448 22.417-32.376l31.757 44.989a8 8 0 0 0 6.536 3.387h272a8 8 0 0 0 6.536-3.387l31.757-44.989c11.321 7.928 22.417 19.089 22.417 32.376 0 9.34-5.659 23.643-32.619 38.743l7.819 13.957c26.692-14.95 40.8-33.174 40.8-52.7 0-16.414-10.061-32.006-29.195-45.441zm40.485-162.559c0 1.237-.041 2.474-.105 3.71-19.4-30.279-55.314-55.663-102.616-72.159q14.5-13.465 30.239-25.542c46.138 24.371 72.482 58.434 72.482 93.991zm-146.926-90.827a436.252 436.252 0 0 0 54.39-66.348 24.309 24.309 0 1 1 33.749 33.685l-.048.032a436.238 436.238 0 0 0 -66.338 54.384l-21.779 21.779a58.121 58.121 0 0 0 -16.84 39.018c-.535 13.7-5.988 27.88-15.436 40.277h-99.812c-3.924-19.583 4.57-43.417 22.23-61.076 14.031-14.031 31.922-22.463 49.088-23.131a58.128 58.128 0 0 0 39.022-16.841zm-77.074 18.827c9.8 0 19.562.378 29.212 1.1a43.566 43.566 0 0 1 -13.558 2.7c-21.143.824-42.931 10.958-59.778 27.8-23.9 23.9-33.565 56.46-24.622 82.95a8 8 0 0 0 7.579 5.45h109.793a8 8 0 0 0 6.15-2.884c13.1-15.749 20.707-34.489 21.42-52.77a42.165 42.165 0 0 1 12.166-28.327l19.938-19.933c55.476 17.719 96.237 48.754 110.228 83.936-23.046 58.098-114.174 99.978-218.528 99.978-104.37 0-195.509-41.893-218.531-100 23.031-58.109 114.164-100 218.531-100zm131.854 280h-263.708l-47.476-67.256a243.341 243.341 0 0 1 -36.3-77.2c15.347 18.812 37.485 35.555 64.97 48.793 42.385 20.418 95.892 31.663 150.66 31.663s108.275-11.245 150.664-31.663c27.484-13.238 49.622-29.98 64.97-48.794a243.325 243.325 0 0 1 -36.3 77.2z"/><path d="m93.416 325.273h16v17.82h-16z" transform="matrix(.817 -.577 .577 .817 -174.153 119.648)"/><path d="m118.009 350.689h16v36.666h-16z" transform="matrix(.817 -.577 .577 .817 -189.744 140.209)"/><path d="m224.09 187.969a60.987 60.987 0 0 0 -8.09 28.031h16c0-1.633.545-40 48-40v-16c-32.726 0-48.467 15.21-55.91 27.969z"/><path d="m104 272h24a16.019 16.019 0 0 0 16-16v-16a16.019 16.019 0 0 0 -16-16h-24a16.019 16.019 0 0 0 -16 16v16a16.019 16.019 0 0 0 16 16zm0-32h24l.01 16h-24.01z"/><path d="m389.657 235.314a16.02 16.02 0 0 0 22.628 0l11.315-11.314a16 16 0 0 0 0-22.628l-16.973-16.972a16.018 16.018 0 0 0 -22.627 0l-11.313 11.314a16 16 0 0 0 0 22.628zm5.657-39.6 16.97 16.971-11.306 11.32-.008-.005-16.97-16.971z"/><path d="m360 288a24 24 0 1 0 -24-24 24.027 24.027 0 0 0 24 24zm0-32a8 8 0 1 1 -8 8 8.009 8.009 0 0 1 8-8z"/><path d="m144 208a24 24 0 1 0 -24-24 24.027 24.027 0 0 0 24 24zm0-32a8 8 0 1 1 -8 8 8.009 8.009 0 0 1 8-8z"/><path d="m208 312h56a8 8 0 0 0 8-8v-4a36 36 0 0 0 -72 0v4a8 8 0 0 0 8 8zm28-32a20.035 20.035 0 0 1 19.6 16h-39.2a20.035 20.035 0 0 1 19.6-16z"/></g></svg>